# xmcd
#
# Track frame offsets: 
#        150
#        20687
#        38732
#        56850
#        76080
#        99927
#        120702
#        138792
#        156832
#        176232
#
# Disc length: 2642 seconds
#
# Revision: 3
# Processed by: cddbd v1.5.2PL0 Copyright (c) Steve Scherf et al.
# Submitted via: ExactAudioCopy v1.0b3
#
DISCID=7b0a500a
DTITLE=陳曉東 - 心有獨鍾
DYEAR=1997
DGENRE=Blues
TTITLE0=心有獨鍾
TTITLE1=妳懂就好
TTITLE2=一秒鐘都太久
TTITLE3=心理遊戲
TTITLE4=愛妳‧躲妳
TTITLE5=猜猜猜
TTITLE6=意亂情迷
TTITLE7=深情的眼睛
TTITLE8=實在
TTITLE9=白襯衫‧藍色憂鬱
EXTD=Philips, PolyGram
EXTT0=
EXTT1=
EXTT2=
EXTT3=
EXTT4=
EXTT5=
EXTT6=
EXTT7=
EXTT8=
EXTT9=
PLAYORDER=
